<?xml version="1.0" encoding="UTF-8" standalone="no"?>
<!-- <?xml version="1.0" encoding="utf-8"?>
Generator: Adobe Illustrator 15.1.0, SVG Export Plug-In . SVG Version: 6.00 Build 0) 
<!DOCTYPE svg PUBLIC "-//W3C//DTD SVG 1.1//EN" "http://www.w3.org/Graphics/SVG/1.1/DTD/svg11.dtd"> -->

<svg
   xmlns:dc="http://purl.org/dc/elements/1.1/"
   xmlns:cc="http://creativecommons.org/ns#"
   xmlns:rdf="http://www.w3.org/1999/02/22-rdf-syntax-ns#"
   xmlns:svg="http://www.w3.org/2000/svg"
   xmlns="http://www.w3.org/2000/svg"
   xmlns:sodipodi="http://sodipodi.sourceforge.net/DTD/sodipodi-0.dtd"
   xmlns:inkscape="http://www.inkscape.org/namespaces/inkscape"
   class="logo"
   version="1.1"
   id="Layer_1"
   x="0px"
   y="0px"
   viewBox="0 0 800 800"
   enable-background="new 0 0 1000 1000"
   xml:space="preserve"
   height="100%"
   width="100%"
   inkscape:version="0.48.2 r9819"
   sodipodi:docname="favicon_up_in_corner.svg"
   inkscape:export-filename="/Users/seh/repositories/coms/video-conference/app/images/favicon2.png"
   inkscape:export-xdpi="2.1483977"
   inkscape:export-ydpi="2.1483977"><metadata
   id="metadata21"><rdf:RDF><cc:Work
       rdf:about=""><dc:format>image/svg+xml</dc:format><dc:type
         rdf:resource="http://purl.org/dc/dcmitype/StillImage" /><dc:title></dc:title></cc:Work></rdf:RDF></metadata><defs
   id="defs19" /><sodipodi:namedview
   pagecolor="#ffffff"
   bordercolor="#666666"
   borderopacity="1"
   objecttolerance="10"
   gridtolerance="10"
   guidetolerance="10"
   inkscape:pageopacity="0"
   inkscape:pageshadow="2"
   inkscape:window-width="1459"
   inkscape:window-height="801"
   id="namedview17"
   showgrid="false"
   inkscape:zoom="0.43345646"
   inkscape:cx="959.7342"
   inkscape:cy="524.88062"
   inkscape:window-x="0"
   inkscape:window-y="13"
   inkscape:window-maximized="0"
   inkscape:current-layer="Layer_1"
   fit-margin-top="-1.9428903e-16"
   fit-margin-left="0"
   fit-margin-right="0"
   fit-margin-bottom="2.7755576e-17"
   inkscape:showpageshadow="false" />
    
    <path
   d="m 683.335,483.65001 c 0,21.416 -17.394,38.768 -38.851,38.768 H 121.331 c -21.456,0 -38.847,-17.352 -38.847,-38.768 v -357.344 c 0,-21.409 17.391,-38.762004 38.847,-38.762004 h 523.154 c 21.457,0 38.851,17.353004 38.851,38.762004 v 357.344 l -10e-4,0 z"
   id="path3"
   inkscape:connector-curvature="0"
   style="fill:#85ae9b" />
    
    <polygon
   points="512.722,849.071 181.011,616.382 512.722,616.382 "
   id="polygon5"
   transform="translate(-109.19,-111.36099)"
   style="fill:#f74969" />
    
    <path
   d="m 591.149,184.79701 c -1.905,3.526 -5.475,6.117 -10.715,6.117 -3.086,0 -5.591,-0.896 -7.522,-2.352 -1.022,26.678 -3.789,52.995 -4.479,79.789 -0.884,34.221 -0.893,68.298 -2.451,102.506 -2.289,50.095 -5.613,101.028 -4.984,151.561 h 105.377 c 9.369,0 16.962,-14.078 16.962,-31.443 v -149.08 l -92.188,-157.098 z"
   id="path7"
   inkscape:connector-curvature="0"
   style="fill:#6f8b7c" />
    
    <path
   d="m 603.31,571.36301 c 0,21.548 -17.464,39.008 -39.009,39.008 H 39.007 C 17.465,610.37101 0,592.91201 0,571.36301 v -359.59 c 0,-21.542 17.464,-39.007 39.007,-39.007 h 525.294 c 21.545,0 39.009,17.464 39.009,39.007 v 359.59 z"
   id="path9"
   inkscape:connector-curvature="0"
   style="fill:#f74969" />
    
    <g
   id="g11"
   transform="translate(-109.19,-111.36099)"
   style="enable-background:new">
        <path
   d="m 460.797,407.878 h 46.57 v 200.699 h -46.57 V 587.56 c -19.096,17.859 -39.634,26.787 -61.611,26.787 -27.75,0 -50.69,-10.026 -68.823,-30.084 -17.998,-20.468 -26.994,-46.019 -26.994,-76.653 0,-30.085 8.996,-55.152 26.994,-75.211 17.995,-20.056 40.522,-30.085 67.587,-30.085 23.352,0 44.302,9.617 62.847,28.849 v -23.285 z m -110.034,99.731 c 0,19.234 5.151,34.895 15.454,46.98 10.577,12.229 23.903,18.34 39.975,18.34 17.17,0 31.044,-5.905 41.624,-17.722 10.577,-12.225 15.866,-27.746 15.866,-46.568 0,-18.819 -5.29,-34.341 -15.866,-46.569 -10.58,-11.951 -24.315,-17.927 -41.211,-17.927 -15.937,0 -29.26,6.047 -39.975,18.133 -10.58,12.229 -15.867,27.338 -15.867,45.333 z"
   id="path13"
   inkscape:connector-curvature="0"
   style="fill:#ffffff" />
    </g>
    
    <path
   d="m 795.942,96.006006 c 0,-3.85 -2.192,-4.739 -4.874,-1.976 l -61.545,63.432004 c -2.681,2.763 -4.874,8.174 -4.874,12.024 v 274.276 c 0,3.85 2.193,9.261 4.874,12.023 l 61.545,63.435 c 2.682,2.764 4.874,1.874 4.874,-1.976 V 96.006006 z"
   id="path15"
   inkscape:connector-curvature="0"
   style="fill:#85ae9b" />
</svg>